<?xml version="1.0" standalone="no"?>
<!DOCTYPE svg PUBLIC "-//W3C//DTD SVG 20010904//EN"
 "http://www.w3.org/TR/2001/REC-SVG-20010904/DTD/svg10.dtd">
<svg version="1.0" xmlns="http://www.w3.org/2000/svg"
 width="500.000000pt" height="500.000000pt" viewBox="0 0 500.000000 500.000000"
 preserveAspectRatio="xMidYMid meet">

<g transform="translate(0.000000,500.000000) scale(0.100000,-0.100000)"
fill="#000000" stroke="none">
<path d="M2527 3156 c-191 -254 -347 -466 -347 -470 0 -4 445 -604 522 -703 6
-8 -37 -47 -144 -127 -117 -89 -155 -113 -163 -103 -13 17 -579 773 -718 960
-61 81 -114 147 -118 147 -4 0 -257 -334 -563 -742 l-556 -743 1030 -3 c567
-1 1494 -1 2061 0 l1030 3 -836 1115 c-460 613 -839 1118 -843 1122 -4 4 -164
-201 -355 -456z"/>
</g>
</svg>
